<svg xmlns="http://www.w3.org/2000/svg" viewBox="0 0 24 24" id="readme"><path fill="#197FC4" d="M24 15.524V5.26a2.007 2.007 0 0 0-1.987-2.01h-5.827a4.286 4.286 0 0 0-4.183 3.354A4.29 4.29 0 0 0 7.82 3.25H2c-1.104 0-2 .898-2 2.005v10.269c0 1.107.896 2.005 2 2.005h3.738c4.258 0 5.529 1.02 6.137 3.133.029.117.217.117.25 0 .613-2.114 1.884-3.133 6.138-3.133H22c1.104 0 2-.898 2-2.005zm-13.913-1.187h-.004a.145.145 0 0 1-.146.146H3.258a.145.145 0 0 1-.146-.146v-.957c0-.079.062-.146.146-.146h6.683c.079 0 .146.062.146.146v.957zm0-2.544h-.004a.145.145 0 0 1-.146.146H3.258a.145.145 0 0 1-.146-.146v-.956c0-.079.062-.146.146-.146h6.683c.079 0 .146.062.146.146v.956zm0-2.544h-.004a.145.145 0 0 1-.146.146H3.258a.145.145 0 0 1-.146-.146v-.957c0-.079.062-.146.146-.146h6.683c.079 0 .146.062.146.146v.957zm10.803 5.084h-.004a.145.145 0 0 1-.146.146h-6.679a.145.145 0 0 1-.146-.146v-.956c0-.079.062-.146.146-.146h6.683c.079 0 .146.062.146.146v.956zm0-2.544h-.004a.145.145 0 0 1-.146.146h-6.679a.145.145 0 0 1-.146-.146v-.956c0-.079.062-.146.146-.146h6.683c.079 0 .146.062.146.146v.956zm0-2.545h-.004a.145.145 0 0 1-.146.146h-6.679a.145.145 0 0 1-.146-.146v-.952c0-.079.062-.146.146-.146h6.683c.079 0 .146.062.146.146v.952z"></path></svg>